<mxfile host="app.diagrams.net" modified="2021-11-16T16:18:00.200Z" agent="5.0 (Macintosh; Intel Mac OS X 10_15_7) AppleWebKit/537.36 (KHTML, like Gecko) Chrome/95.0.4638.69 Safari/537.36" etag="FsE0XJIS5gImK2kKzVWa" version="15.7.4" type="github">
  <diagram id="C5RBs43oDa-KdzZeNtuy" name="Page-1">
    <mxGraphModel dx="946" dy="614" grid="1" gridSize="10" guides="1" tooltips="1" connect="1" arrows="1" fold="1" page="1" pageScale="1" pageWidth="827" pageHeight="1169" math="0" shadow="0">
      <root>
        <mxCell id="WIyWlLk6GJQsqaUBKTNV-0" />
        <mxCell id="WIyWlLk6GJQsqaUBKTNV-1" parent="WIyWlLk6GJQsqaUBKTNV-0" />
        <mxCell id="-oRyBOIR6P-uo0M-V5JD-2" value="" style="edgeStyle=orthogonalEdgeStyle;rounded=0;orthogonalLoop=1;jettySize=auto;html=1;" edge="1" parent="WIyWlLk6GJQsqaUBKTNV-1" source="-oRyBOIR6P-uo0M-V5JD-0" target="-oRyBOIR6P-uo0M-V5JD-1">
          <mxGeometry relative="1" as="geometry" />
        </mxCell>
        <mxCell id="-oRyBOIR6P-uo0M-V5JD-0" value="bp增删改查" style="rhombus;whiteSpace=wrap;html=1;" vertex="1" parent="WIyWlLk6GJQsqaUBKTNV-1">
          <mxGeometry x="90" y="200" width="150" height="80" as="geometry" />
        </mxCell>
        <mxCell id="-oRyBOIR6P-uo0M-V5JD-6" value="" style="edgeStyle=orthogonalEdgeStyle;rounded=0;orthogonalLoop=1;jettySize=auto;html=1;" edge="1" parent="WIyWlLk6GJQsqaUBKTNV-1" source="-oRyBOIR6P-uo0M-V5JD-1" target="-oRyBOIR6P-uo0M-V5JD-5">
          <mxGeometry relative="1" as="geometry" />
        </mxCell>
        <mxCell id="-oRyBOIR6P-uo0M-V5JD-1" value="turuas创意表" style="shape=process;whiteSpace=wrap;html=1;backgroundOutline=1;" vertex="1" parent="WIyWlLk6GJQsqaUBKTNV-1">
          <mxGeometry x="105" y="370" width="120" height="60" as="geometry" />
        </mxCell>
        <mxCell id="-oRyBOIR6P-uo0M-V5JD-8" value="" style="edgeStyle=orthogonalEdgeStyle;rounded=0;orthogonalLoop=1;jettySize=auto;html=1;" edge="1" parent="WIyWlLk6GJQsqaUBKTNV-1" source="-oRyBOIR6P-uo0M-V5JD-5" target="-oRyBOIR6P-uo0M-V5JD-7">
          <mxGeometry relative="1" as="geometry" />
        </mxCell>
        <mxCell id="-oRyBOIR6P-uo0M-V5JD-5" value="消息中心" style="shape=parallelogram;perimeter=parallelogramPerimeter;whiteSpace=wrap;html=1;fixedSize=1;" vertex="1" parent="WIyWlLk6GJQsqaUBKTNV-1">
          <mxGeometry x="305" y="370" width="120" height="60" as="geometry" />
        </mxCell>
        <mxCell id="-oRyBOIR6P-uo0M-V5JD-10" value="" style="edgeStyle=orthogonalEdgeStyle;rounded=0;orthogonalLoop=1;jettySize=auto;html=1;" edge="1" parent="WIyWlLk6GJQsqaUBKTNV-1" source="-oRyBOIR6P-uo0M-V5JD-7" target="-oRyBOIR6P-uo0M-V5JD-9">
          <mxGeometry relative="1" as="geometry" />
        </mxCell>
        <mxCell id="-oRyBOIR6P-uo0M-V5JD-15" value="" style="edgeStyle=orthogonalEdgeStyle;rounded=0;orthogonalLoop=1;jettySize=auto;html=1;" edge="1" parent="WIyWlLk6GJQsqaUBKTNV-1" source="-oRyBOIR6P-uo0M-V5JD-7">
          <mxGeometry relative="1" as="geometry">
            <mxPoint x="530" y="270" as="targetPoint" />
          </mxGeometry>
        </mxCell>
        <mxCell id="-oRyBOIR6P-uo0M-V5JD-17" style="edgeStyle=orthogonalEdgeStyle;rounded=0;orthogonalLoop=1;jettySize=auto;html=1;" edge="1" parent="WIyWlLk6GJQsqaUBKTNV-1" source="-oRyBOIR6P-uo0M-V5JD-7">
          <mxGeometry relative="1" as="geometry">
            <mxPoint x="530" y="490" as="targetPoint" />
          </mxGeometry>
        </mxCell>
        <mxCell id="-oRyBOIR6P-uo0M-V5JD-24" value="" style="edgeStyle=orthogonalEdgeStyle;rounded=0;orthogonalLoop=1;jettySize=auto;html=1;" edge="1" parent="WIyWlLk6GJQsqaUBKTNV-1" source="-oRyBOIR6P-uo0M-V5JD-7" target="-oRyBOIR6P-uo0M-V5JD-9">
          <mxGeometry relative="1" as="geometry" />
        </mxCell>
        <mxCell id="-oRyBOIR6P-uo0M-V5JD-7" value="bss审核" style="rhombus;whiteSpace=wrap;html=1;" vertex="1" parent="WIyWlLk6GJQsqaUBKTNV-1">
          <mxGeometry x="490" y="360" width="80" height="80" as="geometry" />
        </mxCell>
        <mxCell id="-oRyBOIR6P-uo0M-V5JD-9" value="工单表" style="shape=process;whiteSpace=wrap;html=1;backgroundOutline=1;" vertex="1" parent="WIyWlLk6GJQsqaUBKTNV-1">
          <mxGeometry x="665" y="370" width="120" height="60" as="geometry" />
        </mxCell>
        <mxCell id="-oRyBOIR6P-uo0M-V5JD-26" value="" style="edgeStyle=orthogonalEdgeStyle;rounded=0;orthogonalLoop=1;jettySize=auto;html=1;" edge="1" parent="WIyWlLk6GJQsqaUBKTNV-1" source="-oRyBOIR6P-uo0M-V5JD-11">
          <mxGeometry relative="1" as="geometry">
            <mxPoint x="690" y="510" as="targetPoint" />
            <Array as="points">
              <mxPoint x="610" y="480" />
              <mxPoint x="650" y="480" />
            </Array>
          </mxGeometry>
        </mxCell>
        <mxCell id="-oRyBOIR6P-uo0M-V5JD-11" value="单级或多级审核" style="text;html=1;align=center;verticalAlign=middle;resizable=0;points=[];autosize=1;strokeColor=none;fillColor=none;" vertex="1" parent="WIyWlLk6GJQsqaUBKTNV-1">
          <mxGeometry x="560" y="380" width="100" height="20" as="geometry" />
        </mxCell>
        <mxCell id="-oRyBOIR6P-uo0M-V5JD-18" value="turuas创意表" style="shape=process;whiteSpace=wrap;html=1;backgroundOutline=1;" vertex="1" parent="WIyWlLk6GJQsqaUBKTNV-1">
          <mxGeometry x="470" y="500" width="120" height="60" as="geometry" />
        </mxCell>
        <mxCell id="-oRyBOIR6P-uo0M-V5JD-19" value="最终修改对应的审核状态" style="text;html=1;align=center;verticalAlign=middle;resizable=0;points=[];autosize=1;strokeColor=none;fillColor=none;" vertex="1" parent="WIyWlLk6GJQsqaUBKTNV-1">
          <mxGeometry x="465" y="440" width="150" height="20" as="geometry" />
        </mxCell>
        <mxCell id="-oRyBOIR6P-uo0M-V5JD-22" style="edgeStyle=orthogonalEdgeStyle;rounded=0;orthogonalLoop=1;jettySize=auto;html=1;" edge="1" parent="WIyWlLk6GJQsqaUBKTNV-1" source="-oRyBOIR6P-uo0M-V5JD-20">
          <mxGeometry relative="1" as="geometry">
            <mxPoint x="590" y="490" as="targetPoint" />
          </mxGeometry>
        </mxCell>
        <mxCell id="-oRyBOIR6P-uo0M-V5JD-23" value="风控下线对应的创意" style="edgeLabel;html=1;align=center;verticalAlign=middle;resizable=0;points=[];" vertex="1" connectable="0" parent="-oRyBOIR6P-uo0M-V5JD-22">
          <mxGeometry x="-0.5051" y="2" relative="1" as="geometry">
            <mxPoint as="offset" />
          </mxGeometry>
        </mxCell>
        <mxCell id="-oRyBOIR6P-uo0M-V5JD-20" value="Actor" style="shape=umlActor;verticalLabelPosition=bottom;verticalAlign=top;html=1;outlineConnect=0;" vertex="1" parent="WIyWlLk6GJQsqaUBKTNV-1">
          <mxGeometry x="515" y="210" width="30" height="60" as="geometry" />
        </mxCell>
        <mxCell id="-oRyBOIR6P-uo0M-V5JD-21" value="发送钉钉、邮件、站内信通知" style="text;html=1;align=center;verticalAlign=middle;resizable=0;points=[];autosize=1;strokeColor=none;fillColor=none;" vertex="1" parent="WIyWlLk6GJQsqaUBKTNV-1">
          <mxGeometry x="425" y="310" width="170" height="20" as="geometry" />
        </mxCell>
        <mxCell id="-oRyBOIR6P-uo0M-V5JD-27" value="日志表" style="shape=process;whiteSpace=wrap;html=1;backgroundOutline=1;" vertex="1" parent="WIyWlLk6GJQsqaUBKTNV-1">
          <mxGeometry x="690" y="490" width="120" height="60" as="geometry" />
        </mxCell>
      </root>
    </mxGraphModel>
  </diagram>
</mxfile>
